<svg xmlns="http://www.w3.org/2000/svg" width="32.034" height="19.227" viewBox="0 0 32.034 19.227">
    <path fill="#919399" d="M21.758 4.5h-4.3a1.6 1.6 0 0 0-1.081.42l-4.92 4.5c-.005.005-.01.015-.015.02a1.991 1.991 0 0 0-.105 2.8 2.088 2.088 0 0 0 2.808.135c.005-.005.015-.005.02-.01l4-3.664a.8.8 0 1 1 1.081 1.181l-1.306 1.2L25.227 17a3.607 3.607 0 0 1 .4.385V7.7l-2.738-2.73a1.59 1.59 0 0 0-1.131-.47zm5.471 3.213V18.92a1.6 1.6 0 0 0 1.6 1.6h3.2V7.713zm2.4 11.207a.8.8 0 1 1 .8-.8.8.8 0 0 1-.798.8zM0 20.517h3.2a1.6 1.6 0 0 0 1.6-1.6V7.713H0zm2.4-3.2a.8.8 0 1 1-.8.8.8.8 0 0 1 .8-.799zm21.818.931l-7.473-6.066-1.5 1.376a3.6 3.6 0 1 1-4.87-5.311L14.47 4.5h-4.194a1.6 1.6 0 0 0-1.131.47L6.407 7.7v11.21h.916l4.53 4.1a3.2 3.2 0 0 0 4.5-.465l.01-.01.9.776a1.86 1.86 0 0 0 2.618-.27l1.572-1.932.27.22a1.6 1.6 0 0 0 2.252-.235l.476-.586a1.6 1.6 0 0 0-.23-2.257z" transform="translate(0 -4.5)"/>
</svg>
