<svg xmlns="http://www.w3.org/2000/svg" width="15.693" height="15.695" viewBox="0 0 15.693 15.695">
  <g id="Icon_ionic-ios-chatboxes" data-name="Icon ionic-ios-chatboxes" transform="translate(0 0)">
    <path id="Path_313" data-name="Path 313" d="M21.485,11.981H13.124a1.44,1.44,0,0,0-1.438,1.438v5.822a1.436,1.436,0,0,0,1.438,1.434h4.784a.412.412,0,0,1,.287.121l2.377,2.192c.132.128.351.075.351-.109V20.969c0-.226.143-.3.37-.3h.038a1.571,1.571,0,0,0,1.589-1.434V13.419A1.432,1.432,0,0,0,21.485,11.981Z" transform="translate(-7.226 -7.363)" fill="#6c63ff"/>
    <path id="Path_314" data-name="Path 314" d="M8.144,7.069h6.694V4.605a1.23,1.23,0,0,0-1.23-1.23h-9a1.23,1.23,0,0,0-1.23,1.23v6.233a1.23,1.23,0,0,0,1.23,1.23H6.91V8.3A1.236,1.236,0,0,1,8.144,7.069Z" transform="translate(-3.375 -3.375)" fill="#6c63ff"/>
  </g>
</svg>
