<svg xmlns="http://www.w3.org/2000/svg" width="22.265" height="13.364" viewBox="0 0 22.265 13.364">
  <path id="Icon_awesome-handshake" data-name="Icon awesome-handshake" d="M15.123,4.5H12.134a1.113,1.113,0,0,0-.751.292L7.963,7.923s-.007.01-.01.014A1.384,1.384,0,0,0,7.88,9.885a1.451,1.451,0,0,0,1.952.094s.01,0,.014-.007l2.78-2.547a.556.556,0,1,1,.751.821l-.908.831,5.065,4.112a2.507,2.507,0,0,1,.275.268V6.726l-1.9-1.9a1.105,1.105,0,0,0-.786-.327Zm3.8,2.233v7.789a1.112,1.112,0,0,0,1.113,1.113h2.226v-8.9Zm1.67,7.789a.557.557,0,1,1,.557-.557A.558.558,0,0,1,20.595,14.523ZM0,15.632H2.226A1.112,1.112,0,0,0,3.34,14.519V6.733H0Zm1.67-2.223a.557.557,0,1,1-.557.557A.558.558,0,0,1,1.67,13.409Zm15.164.647L11.64,9.84,10.6,10.8A2.5,2.5,0,0,1,7.212,7.106L10.057,4.5H7.142a1.111,1.111,0,0,0-.786.327l-1.9,1.9v7.789H5.09l3.148,2.849a2.226,2.226,0,0,0,3.131-.324l.007-.007.623.539a1.293,1.293,0,0,0,1.819-.188l1.092-1.343.188.153a1.111,1.111,0,0,0,1.565-.164l.33-.407a1.115,1.115,0,0,0-.16-1.569Z" transform="translate(0 -4.5)" fill="#6c63ff"/>
</svg>
