<svg xmlns="http://www.w3.org/2000/svg" width="17.225" height="15.072" viewBox="0 0 17.225 15.072">
  <path id="Icon_awesome-headphones" data-name="Icon awesome-headphones" d="M8.612,2.25A8.608,8.608,0,0,0,0,10.862v1.615a1.077,1.077,0,0,0,.6.963l.484.242a3.768,3.768,0,0,0,3.766,3.64h.807a.807.807,0,0,0,.807-.807V10.593a.807.807,0,0,0-.807-.807H4.844a3.756,3.756,0,0,0-2.691,1.131v-.055a6.459,6.459,0,1,1,12.919,0v.055A3.756,3.756,0,0,0,12.38,9.786h-.807a.807.807,0,0,0-.807.807v5.921a.807.807,0,0,0,.807.807h.807a3.768,3.768,0,0,0,3.766-3.64l.484-.242a1.077,1.077,0,0,0,.6-.963V10.862A8.608,8.608,0,0,0,8.612,2.25Z" transform="translate(0 -2.25)" fill="#6c63ff"/>
</svg>
