<svg xmlns="http://www.w3.org/2000/svg" width="21.789" height="16.993" viewBox="0 0 21.789 16.993">
  <path id="Icon_map-lawyer" data-name="Icon map-lawyer" d="M.129,13.721a2.814,2.814,0,0,0,5.58,0Zm15.2,5.665a.436.436,0,0,1-.435.437H6.767a.435.435,0,1,1,0-.87H14.9A.434.434,0,0,1,15.332,19.386Zm-8.953.66h8.906V21.3H6.379Zm9.7-6.325a2.812,2.812,0,0,0,5.578,0Zm5.425-.875L19.221,9.7h1.222a.542.542,0,0,0,0-1.084H13.972a3.2,3.2,0,0,0-2.455-2.062v-1.7a.541.541,0,0,0-.543-.543l-.051.006-.051-.006a.54.54,0,0,0-.542.543v1.7A3.2,3.2,0,0,0,7.877,8.613H1.4A.542.542,0,0,0,1.4,9.7H2.571L.285,12.845H0v.581H5.839v-.581H5.552L3.268,9.7h5.3A2.3,2.3,0,0,1,8.6,9.339a.512.512,0,0,0,.031-.167,2.317,2.317,0,0,1,1.7-1.714v5.969h-.023a6.591,6.591,0,0,1-2.7,5.3h6.63a6.6,6.6,0,0,1-2.7-5.3h-.021V7.458a2.316,2.316,0,0,1,1.7,1.714.551.551,0,0,0,.033.167,2.416,2.416,0,0,1,.028.359h5.248l-2.285,3.147h-.285v.581h5.837v-.581Zm-18.819,0H.863l1.824-2.512v2.512Zm.467,0V10.333l1.824,2.512H3.153Zm15.484,0H16.813l1.825-2.512Zm.465,0V10.333l1.826,2.512ZM3.461,7.857a.541.541,0,1,1-.54-.543A.542.542,0,0,1,3.461,7.857Zm15.951-.029a.542.542,0,1,1-.264-.487A.539.539,0,0,1,19.412,7.828Z" transform="translate(0 -4.311)" fill="#6c63ff"/>
</svg>
