<svg xmlns="http://www.w3.org/2000/svg" id="archive-outline" width="12.246" height="12.258" viewBox="0 0 12.246 12.258">
    <defs>
        <style>
            .cls-1{fill:#919399}
        </style>
    </defs>
    <path id="Path_892" d="M16.772 6.543A2.043 2.043 0 0 0 14.729 4.5H6.557A2.043 2.043 0 0 0 5.2 8.055v6.66a2.043 2.043 0 0 0 2.043 2.043h6.81a2.043 2.043 0 0 0 2.043-2.043v-6.66a2.043 2.043 0 0 0 .676-1.512zM6.557 5.862h8.172a.681.681 0 0 1 0 1.362H6.557a.681.681 0 1 1 0-1.362zm8.172 8.853a.681.681 0 0 1-.681.681h-6.81a.681.681 0 0 1-.681-.681V8.586h8.172z" class="cls-1" transform="translate(-4.526 -4.5)"/>
    <path id="Path_893" d="M14.092 18h2.9a.592.592 0 0 1 .592.592v.177a.592.592 0 0 1-.592.592h-2.9a.592.592 0 0 1-.592-.592v-.177a.592.592 0 0 1 .592-.592z" class="cls-1" transform="translate(-9.426 -11.871)"/>
</svg>
