<svg xmlns="http://www.w3.org/2000/svg" width="19.395" height="19.395" viewBox="0 0 19.395 19.395">
    <path fill="#801323" d="M4.077 13.775h6.465A1.077 1.077 0 0 0 11.62 12.7V4.077A1.077 1.077 0 0 0 10.542 3H4.077A1.077 1.077 0 0 0 3 4.077V12.7a1.077 1.077 0 0 0 1.077 1.075zM3 21.317a1.077 1.077 0 0 0 1.077 1.077h6.465a1.077 1.077 0 0 0 1.077-1.077v-4.31a1.077 1.077 0 0 0-1.077-1.077H4.077A1.077 1.077 0 0 0 3 17.007zm10.775 0a1.077 1.077 0 0 0 1.077 1.077h6.465a1.077 1.077 0 0 0 1.077-1.077v-7.542a1.077 1.077 0 0 0-1.077-1.075h-6.465a1.077 1.077 0 0 0-1.077 1.077zm1.077-10.775h6.465a1.077 1.077 0 0 0 1.077-1.077V4.077A1.077 1.077 0 0 0 21.317 3h-6.465a1.077 1.077 0 0 0-1.077 1.077v5.388a1.077 1.077 0 0 0 1.077 1.077z" transform="translate(-3 -3)"/>
</svg>
