<svg id="Layer_1" data-name="Layer 1" xmlns="http://www.w3.org/2000/svg" viewBox="0 0 448.22 52.27"><defs><style>.cls-1,.cls-2{fill:none;stroke-linecap:round;stroke-width:5.73px;}.cls-1{stroke:#374650;}.cls-2{stroke:#801423;stroke-miterlimit:10;}</style></defs><path class="cls-1" d="M114.57,429.67l11.23-32c3.22-9.18,14.57-9.2,18,0l11.17,32" transform="translate(-73.13 -380.44)"/><path class="cls-1" d="M85.9,390.79l-9.29,26.44c-2.15,6,1.55,12.62,7,12.62h17.3" transform="translate(-73.13 -380.44)"/><path class="cls-2" d="M463.83,411.6l2.54.14a7.41,7.41,0,0,1,5.57,5.11l.06.17c2.07,6-1.62,12.51-7.06,12.51H447.63c-5.47,0-9.17-6.64-7-12.61.07.12,5.9-17.33,7.95-21.61a8.86,8.86,0,0,1,7.73-5c3.1-.14,46.12,0,46.12,0" transform="translate(-73.13 -380.44)"/><path class="cls-2" d="M502.41,390.34c-3.52,0-7.06,2.17-8.74,6.69l-7.16,19.89c-2.15,6,1.55,12.61,7,12.61h17.3c5.44,0,9.14-6.55,7.06-12.51L511,397.26c-1.58-4.55-5.08-6.87-8.61-6.92" transform="translate(-73.13 -380.44)"/><path class="cls-1" d="M157.76,390.58l11.17,31.83c3.19,9.09,14,9.21,17.35.17l9.18-25.11c3.19-9.1,14-9.21,17.35-.17l9.28,25.11c3.19,9.09,14,9.21,17.35.17l2.1-5.54" transform="translate(-73.13 -380.44)"/><path class="cls-1" d="M330.55,429.18l-11.78-32c-3.32-9-14.15-8.93-17.35.17l-9.28,25.11c-3.32,9-14.15,8.92-17.35-.17l-9.18-25.11c-3.32-9-14.16-8.93-17.35.17l-2.62,7.46" transform="translate(-73.13 -380.44)"/><path class="cls-1" d="M432.31,390.47l-11.72,32c-3.32,9-14.16,8.92-17.35-.17l-9.18-25.11c-3.33-9-14.16-8.93-17.35.17l-11.17,31.82" transform="translate(-73.13 -380.44)"/><line class="cls-1" x1="276.56" y1="48.74" x2="264.24" y2="12.9"/><path class="cls-2" d="M478.94,389.32c-.06-1.87,0-6,0-6" transform="translate(-73.13 -380.44)"/></svg>