<svg xmlns="http://www.w3.org/2000/svg" width="11.998" height="11.998" viewBox="0 0 11.998 11.998">
    <path fill="#919399" d="M11.8 7.249a.137.137 0 0 1 0 .051 6.071 6.071 0 0 1-2.1 3.4A5.725 5.725 0 0 1 5.968 12a5.852 5.852 0 0 1-2.207-.43 5.962 5.962 0 0 1-1.9-1.226L.852 11.349A.48.48 0 0 1 .5 11.5a.48.48 0 0 1-.352-.148A.48.48 0 0 1 0 11V7.5a.481.481 0 0 1 .148-.352A.479.479 0 0 1 .5 7H4a.5.5 0 0 1 .352.852l-1.07 1.07a4.031 4.031 0 0 0 1.257.8 3.977 3.977 0 0 0 3.413-.226A3.939 3.939 0 0 0 9.4 8.093a9.408 9.408 0 0 0 .414-.914.235.235 0 0 1 .239-.179h1.5a.239.239 0 0 1 .176.074.242.242 0 0 1 .074.176zM12 1v3.5a.507.507 0 0 1-.5.5H8a.5.5 0 0 1-.352-.852L8.725 3.07A3.88 3.88 0 0 0 6 2a3.984 3.984 0 0 0-3.407 1.906 9.408 9.408 0 0 0-.414.914.235.235 0 0 1-.234.18H.391a.239.239 0 0 1-.176-.074.242.242 0 0 1-.074-.176v-.055A6.093 6.093 0 0 1 2.25 1.3 5.767 5.767 0 0 1 6 0a5.892 5.892 0 0 1 2.217.434 6.055 6.055 0 0 1 1.914 1.222L11.147.649a.491.491 0 0 1 .7 0A.48.48 0 0 1 12 1z"/>
</svg>
