<svg xmlns="http://www.w3.org/2000/svg" width="31.097" height="18.665" viewBox="0 0 31.097 18.665">
    <path fill="#919399" d="M30.292 10.721c-2.518.17-6.11 2.659-7.928 3.475a10.061 10.061 0 0 1-3.7 1.186c-1.1 0-1.264-.787-1.035-2.523.053-.389.569-3.85-2.075-3.7-1.22.073-3.125 1.205-8.239 6.124l2.017-5.04a4.2 4.2 0 0 0-6.3-5L.36 7.042a.782.782 0 0 0-.238 1.074l.836 1.312a.773.773 0 0 0 1.074.238l2.819-1.89a1.085 1.085 0 0 1 1.59 1.317L1.668 21.03a1.553 1.553 0 0 0 1.444 2.134 1.537 1.537 0 0 0 1.1-.457c2.051-2.051 7.519-7.325 10.266-9.517a5.045 5.045 0 0 0 1 4.073 4.1 4.1 0 0 0 3.184 1.23 12.292 12.292 0 0 0 4.972-1.458c1.6-.719 4.812-3.043 6.727-3.2a.78.78 0 0 0 .739-.768v-1.56a.771.771 0 0 0-.807-.787z" transform="translate(-.002 -4.499)"/>
</svg>
