<?xml version="1.0" encoding="utf-8"?>
<!-- Generator: Adobe Illustrator 19.0.0, SVG Export Plug-In . SVG Version: 6.00 Build 0)  -->
<svg version="1.1" id="Layer_1" xmlns="http://www.w3.org/2000/svg" xmlns:xlink="http://www.w3.org/1999/xlink" x="0px" y="0px"
	 viewBox="131 -131 512 512" style="enable-background:new 131 -131 512 512;" xml:space="preserve">
<g id="XMLID_2_">
	<path id="XMLID_6_" d="M437.5,338.6c0,4.5-1.8,8.1-5.4,11.7l-25.2,25.2c-3.6,3.6-7.2,5.4-11.7,5.4s-8.1-1.8-11.7-5.4l-239-238.8
		c-3.6-3.6-5.4-7.2-5.4-11.7s1.8-8.1,5.4-11.7l238.9-238.9c3.6-3.6,7.2-5.4,11.7-5.4s8.1,1.8,11.7,5.4l25.2,25.2
		c3.6,3.6,5.4,7.2,5.4,11.7s-1.8,8.1-5.4,11.7L231.1,125L433,326.9C435.7,330.5,437.5,334.1,437.5,338.6z M634.9,338.6
		c0,4.5-1.8,8.1-5.4,11.7l-25.2,25.2c-3.6,3.6-7.2,5.4-11.7,5.4s-8.1-1.8-11.7-5.4L341,136.7c-3.6-3.6-5.4-7.2-5.4-11.7
		s1.8-8.1,5.4-11.7l238.9-238.9c3.6-3.6,7.2-5.4,11.7-5.4s8.1,1.8,11.7,5.4l25.2,25.2c3.6,3.6,5.4,7.2,5.4,11.7s-1.8,8.1-5.4,11.7
		l-200,202l201.9,201.9C633.1,330.5,634.9,334.1,634.9,338.6z"/>
</g>
</svg>
