<svg xmlns="http://www.w3.org/2000/svg" width="35.736" height="35.512" viewBox="0 0 35.736 35.512">
    <g>
        <path fill="#fff" fill-rule="evenodd" d="M33.834 15.035L18.99 29.9l-3.427-3.43 14.852-14.854 3.419 3.419zm.929-.931l2.274-2.277a1.317 1.317 0 0 0-.006-1.862L35.48 8.418a1.317 1.317 0 0 0-1.863 0l-2.272 2.272 3.419 3.41zM14.711 27.478l-.841 4.094 4.123-.812-3.282-3.282zm13.279-4.749v13.156a2.624 2.624 0 0 1-2.627 2.627H5.627A2.631 2.631 0 0 1 3 35.872V5.64A2.641 2.641 0 0 1 5.642 3h13.141v7.894a2.627 2.627 0 0 0 2.638 2.628h5.253L32.7 7.5a2.622 2.622 0 0 1 3.722-.013l1.551 1.551a2.635 2.635 0 0 1-.013 3.722l-9.97 9.97zM20.1 3v7.888a1.317 1.317 0 0 0 1.3 1.319h6.59L20.1 3z" transform="translate(-3 -3)"/>
    </g>
</svg>
